<svg xmlns="http://www.w3.org/2000/svg" viewBox="0 0 1144.37 586.13"><defs><style>.cls-1{fill:#edff00;}.cls-2{fill:#252423;}</style></defs><title>Berge Full colour logo</title><g id="Layer_2" data-name="Layer 2"><g id="Lager_1" data-name="Lager 1"><path class="cls-1" d="M293.81,398.3c2.24,10.14-4.7,20-18.09,23L219.2,433.74l0-34.56,56.51-12.45C285.11,384.65,292.06,390.33,293.81,398.3Z"/><path class="cls-1" d="M288.47,303.38c1.67,7.61-.15,18.27-15,21.55l-54.32,12,.17-31.94,52.15-11.5C281.61,291.22,287,296.87,288.47,303.38Z"/><path class="cls-1" d="M487.34,321.84l.24,1.09L430,335.62c.49-8.08,8.76-24,26.15-27.8C476.8,303.27,486.23,316.77,487.34,321.84Z"/><path class="cls-1" d="M748.67,250.66c-25.51,4.94-35.78,27.47-31.83,45.4s20.18,23.19,34.39,17.86a50.87,50.87,0,0,0,23-17.13l.09-36.39C769.13,253.35,757.85,248.88,748.67,250.66ZM934.36,201.4c-17.39,3.83-25.66,19.71-26.15,27.8l57.58-12.7-.24-1.09C964.44,210.34,955,196.84,934.36,201.4ZM0,249.31V586.13L660.22,440.6l27.08-51.17c13.71,9.14,34.26,13.43,55.63,7.25,17-4.91,38.23-17.53,38.38-47.25,0,0-16.72,21.45-45.79,27.86-33.69,7.42-69.93-3.58-81.26-55a126.33,126.33,0,0,1-1.57-45.7c-1.9.23-3.86.56-5.81,1-13.76,3-26.13,10.7-33.63,21.46l.33,110.08-65.19,14.37.07-70.66L432.93,378.27l.08.36c.56,2.54,14.67,19.56,45.43,12.78,23.11-5.1,41.43-18.19,41.43-18.19l-.14,54.49c-2.61,1.87-18.83,10.78-39.84,15.41-53.78,11.86-97.45-5.35-111.31-51.39,5.08,31.53-9.61,73.49-70.72,87L146.1,512.14V258.8l134.38-29.62c48.9-10.77,76.77,15.75,83.15,44.72,6.79,30.8-12.69,64.71-40.75,73.56,22.42,1.19,37.19,16.31,43.22,34.06-10.52-54.83,21.54-110.62,81.66-123.87,43.46-9.58,87.69,8.39,99.43,61.64.5,2.27.94,4.64,1.31,7l.09-86.32,65.2-14.37-.31,21c10.36-16.73,23.62-26.95,53.77-32.83l-.06,22.18a83.86,83.86,0,0,1,54.48-38.65c18.48-4.07,40.44-.93,56.47,11.49l.27-19.44L843.61,175l-.18,64c6-41.33,35.76-77.38,82.53-87.69,43.46-9.58,87.69,8.39,99.43,61.64,2.63,11.95,3.49,26.19,3.12,33.12L911.15,271.84l.07.37c.56,2.53,14.67,19.55,45.42,12.77,23.12-5.1,41.45-18.19,41.45-18.19l-.15,54.49c-2.61,1.88-18.83,10.79-39.83,15.42-56.51,12.45-101.86-7.18-113.19-58.61q-1-4.43-1.58-8.85l-.18,69.13c-.14,27.82-6.07,49.07-15.33,65.29l316.54-66.76V0ZM934.36,201.4c-17.39,3.83-25.66,19.71-26.15,27.8l57.58-12.7-.24-1.09C964.44,210.34,955,196.84,934.36,201.4ZM748.67,250.66c-25.51,4.94-35.78,27.47-31.83,45.4s20.18,23.19,34.39,17.86a50.87,50.87,0,0,0,23-17.13l.09-36.39C769.13,253.35,757.85,248.88,748.67,250.66Z"/><path class="cls-2" d="M1028.5,246c.37-6.92-.49-21.17-3.13-33.13-11.73-53.24-56-71.22-99.42-61.64-46.77,10.31-76.56,46.37-82.53,87.68l.18-63.94-65.21,14.38-.27,19.43c-16-12.42-38-15.56-56.47-11.48a83.79,83.79,0,0,0-54.47,38.64l.06-22.18c-30.16,5.88-43.42,16.11-53.79,32.82l.32-21L548.58,240l-.1,86.36c-.37-2.4-.81-4.77-1.32-7.05-11.73-53.25-55.95-71.23-99.42-61.65-60.09,13.25-92.15,69-81.67,123.81-6-17.72-20.82-32.79-43.21-34,28.06-8.84,47.55-42.76,40.76-73.55-6.38-29-34.25-55.5-83.16-44.72L146.09,258.8V512.13l151.76-33.45c61-13.46,75.78-55.37,70.74-86.88,13.88,46,57.55,63.17,111.3,51.32,21-4.63,37.22-13.54,39.83-15.42l.15-54.5s-18.32,13.11-41.44,18.2c-30.76,6.78-44.86-10.24-45.42-12.77l-.08-.36,115.52-25.46-.07,70.65,65.2-14.38L613.24,299c7.51-10.77,19.87-18.43,33.63-21.46,2-.43,3.92-.77,5.81-1a126.45,126.45,0,0,0,1.57,45.72c11.34,51.43,47.57,62.44,81.26,55,29.07-6.4,45.79-27.86,45.79-27.86-.15,29.72-21.39,42.34-38.38,47.25-21.37,6.19-41.92,1.89-55.63-7.24L660.21,440.6l167.62-37c9.25-16.21,15.18-37.47,15.32-65.29l.18-69.13c.4,3,.93,5.9,1.58,8.85,11.33,51.43,56.68,71.06,113.19,58.61,21-4.63,37.22-13.54,39.83-15.43l.14-54.48S979.76,279.87,956.64,285c-30.76,6.78-44.86-10.24-45.42-12.77l-.07-.36Zm-94.14-44.58c20.64-4.55,30.08,8.94,31.19,14l.24,1.09-57.6,12.69C908.7,221.09,917,205.22,934.36,201.39ZM275.71,421.28,219.2,433.73l0-34.56,56.51-12.46c9.41-2.07,16.37,3.61,18.12,11.58C296.05,408.44,289.11,418.33,275.71,421.28Zm-2.25-96.37-54.33,12,.18-31.94,52.15-11.49c10.14-2.24,15.56,3.4,17,9.92C290.14,311,288.31,321.64,273.46,324.91Zm214.12-2L430,335.61c.5-8.08,8.78-24,26.16-27.79,20.65-4.55,30.09,8.94,31.2,14Zm286.63-26.14a50.66,50.66,0,0,1-23,17.13c-14.21,5.33-30.43.09-34.39-17.85s6.32-40.47,31.81-45.41c9.19-1.77,20.47,2.69,25.66,9.73Z"/></g></g></svg>